<?xml version="1.0" standalone="no"?>
<!DOCTYPE svg PUBLIC "-//W3C//DTD SVG 20010904//EN"
 "http://www.w3.org/TR/2001/REC-SVG-20010904/DTD/svg10.dtd">
<svg version="1.0" xmlns="http://www.w3.org/2000/svg"
 width="300.000000pt" height="126.000000pt" viewBox="0 0 300.000000 126.000000"
 preserveAspectRatio="xMidYMid meet">
<metadata>
Created by potrace 1.10, written by Peter Selinger 2001-2011
</metadata>
<g transform="translate(0.000000,126.000000) scale(0.100000,-0.100000)"
fill="#ffffff" stroke="none">
<path d="M2724 1005 c-80 -40 -133 -76 -201 -135 -51 -44 -94 -80 -96 -80 -3
0 -7 17 -11 38 -3 21 -18 54 -33 74 -118 152 -348 133 -434 -35 -64 -123 -9
-285 115 -343 61 -28 149 -32 204 -8 20 9 45 17 54 18 9 0 51 48 94 106 95
130 220 254 347 344 53 37 97 70 97 72 0 12 -38 -2 -136 -51z m-449 -44 c54
-25 100 -76 119 -131 l15 -45 -31 -32 c-18 -18 -36 -33 -40 -33 -4 0 -8 19 -8
41 0 51 -29 101 -76 130 -28 17 -46 20 -88 17 -91 -8 -146 -69 -146 -161 0
-96 102 -174 195 -149 33 9 43 8 60 -6 20 -17 20 -17 1 5 -10 13 -16 29 -12
38 3 10 -5 31 -22 53 l-27 36 38 -21 c45 -27 59 -23 119 35 25 24 51 41 56 38
6 -4 55 31 109 77 135 115 150 114 34 -1 -54 -53 -126 -135 -160 -182 -94
-128 -89 -124 -108 -108 -9 7 -14 8 -10 2 12 -20 -44 -39 -112 -39 -90 0 -154
32 -198 99 -30 44 -33 55 -33 127 0 85 17 126 71 176 59 53 178 69 254 34z
m-34 -86 c43 -23 69 -71 69 -127 0 -27 -3 -48 -7 -48 -4 0 -49 27 -100 61 -92
61 -151 79 -79 24 33 -25 126 -135 126 -149 0 -3 -17 -10 -38 -15 -90 -25
-172 41 -172 136 0 99 112 164 201 118z"/>
<path d="M1203 998 c-25 -33 -214 -461 -209 -474 4 -9 21 -14 54 -14 47 0 50
1 67 40 l18 40 92 0 93 0 16 -40 c16 -39 17 -40 66 -40 35 0 52 4 56 15 3 8
-42 120 -101 250 -108 236 -124 259 -152 223z m47 -47 c0 -5 39 -94 86 -197
47 -104 87 -197 89 -206 3 -14 -3 -18 -25 -18 -23 0 -33 8 -52 43 l-23 42 -97
3 c-94 3 -96 3 -115 -23 -25 -37 -52 -65 -60 -65 -5 0 -14 4 -21 9 -10 6 -3
28 29 97 23 49 47 92 53 96 6 4 8 8 4 8 -7 0 18 59 68 167 24 49 40 65 57 56
4 -2 7 -8 7 -12z"/>
<path d="M1213 802 c-23 -14 -52 -95 -42 -114 12 -22 90 -25 107 -5 15 18 -1
76 -28 105 -24 25 -21 24 -37 14z m57 -103 c0 -3 -20 -6 -45 -6 -25 0 -44 3
-43 6 2 3 12 26 22 50 l19 44 23 -44 c13 -24 23 -47 24 -50z"/>
<path d="M1660 1001 c-76 -25 -136 -78 -169 -151 -72 -159 55 -350 234 -350
59 0 127 26 161 61 l28 29 -37 37 -36 37 -40 -22 c-46 -26 -102 -28 -141 -6
-85 51 -84 196 2 240 43 22 105 20 139 -5 37 -27 39 -27 79 14 33 34 33 35 14
56 -46 51 -168 82 -234 60z m146 -32 c40 -12 66 -41 58 -63 -8 -20 -31 -20
-77 -1 -20 8 -55 15 -77 15 -35 0 -47 -6 -85 -44 -47 -48 -62 -90 -51 -154 16
-102 131 -161 222 -114 35 18 42 18 59 6 15 -11 17 -18 9 -31 -34 -55 -169
-72 -241 -32 -84 47 -123 111 -122 201 1 85 27 137 90 183 74 53 127 61 215
34z"/>
<path d="M354 987 c-2 -7 -3 -116 -2 -242 l3 -230 100 -3 c121 -4 171 9 226
56 107 92 118 243 25 349 -60 69 -99 83 -234 83 -82 0 -114 -3 -118 -13z m211
-17 c3 -6 11 -8 16 -4 10 6 72 -29 100 -56 40 -38 59 -87 59 -149 0 -86 -21
-128 -94 -188 -42 -35 -127 -46 -254 -34 -17 1 -17 428 1 434 26 9 166 7 172
-3z"/>
<path d="M457 902 c-14 -15 -17 -42 -17 -149 0 -116 2 -132 20 -148 15 -13 29
-16 66 -11 97 11 150 79 142 181 -4 46 -10 61 -38 90 -52 53 -141 72 -173 37z
m131 -32 c57 -35 77 -111 45 -177 -22 -46 -67 -73 -123 -73 l-45 0 3 135 3
135 42 0 c24 0 56 -9 75 -20z"/>
<path d="M830 988 c0 -7 -2 -113 -4 -234 -2 -122 -1 -227 4 -233 4 -8 26 -11
56 -9 l49 3 0 240 0 240 -52 3 c-39 2 -53 -1 -53 -10z m83 -222 c1 -108 -1
-205 -5 -216 -5 -13 -17 -20 -32 -20 l-25 0 4 213 c2 116 4 215 4 219 1 10 35
16 44 8 5 -4 9 -96 10 -204z"/>
<path d="M1015 440 c-3 -5 1 -10 9 -10 8 0 18 5 21 10 3 6 -1 10 -9 10 -8 0
-18 -4 -21 -10z"/>
<path d="M2105 440 c-3 -5 1 -10 9 -10 9 0 16 5 16 10 0 6 -4 10 -9 10 -6 0
-13 -4 -16 -10z"/>
<path d="M350 367 l0 -54 33 5 c43 6 57 19 57 53 0 31 -23 49 -64 49 -25 0
-26 -3 -26 -53z m54 27 c22 -8 20 -41 -3 -53 -23 -13 -31 -5 -31 31 0 29 6 33
34 22z"/>
<path d="M460 365 c0 -42 3 -55 15 -55 12 0 15 13 15 55 0 42 -3 55 -15 55
-12 0 -15 -13 -15 -55z"/>
<path d="M510 365 c0 -30 5 -55 10 -55 6 0 10 9 10 20 0 11 4 20 10 20 5 0 14
-9 20 -20 6 -11 17 -20 25 -20 17 0 20 16 5 25 -5 3 -7 20 -3 36 7 35 -7 49
-49 49 -27 0 -28 -2 -28 -55z m60 20 c0 -8 -9 -15 -20 -15 -11 0 -20 7 -20 15
0 8 9 15 20 15 11 0 20 -7 20 -15z"/>
<path d="M620 365 l0 -55 35 0 c26 0 35 4 35 16 0 12 -7 15 -25 12 -17 -4 -25
-1 -25 8 0 8 11 14 25 14 14 0 25 5 25 11 0 7 -10 9 -25 7 -17 -4 -25 -1 -25
8 0 8 11 14 25 14 14 0 25 5 25 10 0 6 -16 10 -35 10 l-35 0 0 -55z"/>
<path d="M728 409 c-49 -28 3 -115 52 -89 26 14 19 24 -18 25 -18 0 -28 6 -30
19 -5 23 16 37 45 29 26 -6 32 12 7 21 -22 8 -36 7 -56 -5z"/>
<path d="M824 395 c-30 -46 13 -99 63 -76 13 6 21 16 18 21 -4 6 -13 7 -23 1
-25 -12 -42 -3 -42 25 0 28 24 42 44 25 11 -9 16 -9 21 0 4 6 1 15 -6 20 -26
16 -58 9 -75 -16z"/>
<path d="M926 368 c3 -73 24 -76 24 -4 0 39 -4 56 -13 56 -9 0 -12 -16 -11
-52z"/>
<path d="M985 404 c-23 -24 -15 -66 17 -83 24 -14 28 -14 47 3 27 24 28 72 2
86 -28 14 -47 13 -66 -6z m63 -30 c4 -29 -23 -51 -43 -34 -18 15 -19 32 -3 48
18 18 42 10 46 -14z"/>
<path d="M1090 365 c0 -44 3 -55 16 -55 14 0 16 7 11 38 l-6 37 24 -30 c14
-16 25 -33 25 -37 0 -5 7 -8 15 -8 12 0 15 13 15 55 0 41 -4 55 -14 55 -11 0
-13 -9 -9 -37 l5 -38 -26 30 c-14 17 -25 33 -26 38 0 4 -7 7 -15 7 -12 0 -15
-13 -15 -55z"/>
<path d="M1250 365 c0 -60 9 -66 64 -45 21 8 26 16 26 44 0 39 -20 56 -64 56
-25 0 -26 -3 -26 -55z m54 29 c20 -8 21 -38 1 -54 -20 -17 -35 -4 -35 31 0 30
6 34 34 23z"/>
<path d="M1360 365 l0 -55 40 0 c28 0 40 4 40 14 0 9 -9 14 -24 13 -14 -1 -24
3 -23 8 1 6 10 10 20 9 9 0 17 5 17 13 0 7 -8 12 -17 10 -10 -1 -20 3 -23 8
-3 6 7 11 23 13 42 5 32 22 -13 22 l-40 0 0 -55z"/>
<path d="M1507 368 c-13 -30 -19 -55 -14 -57 5 -2 14 4 19 13 12 21 44 21 57
-1 5 -10 13 -15 17 -11 9 9 -30 101 -45 106 -6 2 -21 -20 -34 -50z m43 -3 c0
-8 -4 -15 -10 -15 -5 0 -10 7 -10 15 0 8 5 15 10 15 6 0 10 -7 10 -15z"/>
<path d="M1590 410 c0 -5 7 -10 15 -10 11 0 15 -12 15 -45 0 -25 5 -45 10 -45
6 0 10 20 10 45 0 33 4 45 15 45 8 0 15 5 15 10 0 6 -18 10 -40 10 -22 0 -40
-4 -40 -10z"/>
<path d="M1690 365 l0 -55 35 0 c23 0 35 5 35 14 0 9 -8 12 -25 8 -19 -3 -25
0 -25 12 0 11 7 16 18 14 11 -2 19 2 20 7 1 6 -8 9 -18 7 -13 -2 -20 2 -20 14
0 12 6 15 25 12 17 -4 25 -1 25 8 0 9 -12 14 -35 14 l-35 0 0 -55z"/>
<path d="M1780 365 c0 -43 3 -55 15 -55 13 0 15 8 10 38 l-7 37 26 -30 c14
-16 25 -33 26 -37 0 -5 7 -8 15 -8 12 0 15 13 15 55 0 44 -3 55 -16 55 -14 0
-16 -7 -11 -37 l6 -38 -24 30 c-14 17 -25 33 -25 38 0 4 -7 7 -15 7 -12 0 -15
-13 -15 -55z"/>
<path d="M1916 407 c-28 -21 -18 -79 16 -91 28 -10 63 7 52 26 -3 5 -12 4 -20
-3 -16 -13 -44 3 -44 26 0 23 28 39 44 26 11 -9 16 -9 21 0 16 25 -39 38 -69
16z"/>
<path d="M2010 365 c0 -30 5 -55 10 -55 6 0 10 25 10 55 0 30 -4 55 -10 55 -5
0 -10 -25 -10 -55z"/>
<path d="M2067 402 c-10 -10 -17 -28 -17 -40 0 -21 34 -52 57 -52 18 0 53 37
53 55 0 21 -36 55 -58 55 -11 0 -26 -8 -35 -18z m58 -37 c0 -23 -5 -30 -19
-30 -28 0 -43 29 -26 50 21 25 45 14 45 -20z"/>
<path d="M2180 365 c0 -30 5 -55 10 -55 6 0 10 15 10 33 l0 32 26 -32 c14 -18
30 -33 35 -33 5 0 9 25 9 55 0 30 -4 55 -10 55 -5 0 -10 -17 -10 -37 l0 -38
-27 38 c-14 20 -30 37 -35 37 -4 0 -8 -25 -8 -55z"/>
<path d="M2320 416 c0 -3 9 -20 20 -39 11 -19 18 -42 14 -51 -4 -11 -1 -16 10
-16 10 0 16 9 16 25 0 14 7 37 16 51 22 32 8 46 -15 15 l-19 -24 -6 21 c-6 18
-36 33 -36 18z"/>
<path d="M476 258 c-24 -13 -19 -37 10 -48 14 -6 22 -14 19 -20 -4 -7 -13 -6
-27 1 -16 9 -19 8 -16 -3 3 -7 18 -13 34 -13 38 0 45 30 10 46 -29 14 -26 30
4 22 11 -3 20 -1 20 5 0 14 -34 21 -54 10z"/>
<path d="M607 258 c-25 -13 -21 -37 9 -48 14 -6 22 -14 19 -20 -4 -7 -13 -6
-27 1 -16 9 -19 8 -16 -3 3 -7 18 -13 34 -13 39 0 45 30 10 46 -31 14 -35 33
-6 24 11 -3 20 -2 20 3 0 15 -24 21 -43 10z"/>
<path d="M372 218 c-12 -27 -15 -45 -8 -47 5 -2 12 1 14 8 5 14 39 15 47 1 3
-5 10 -10 15 -10 5 0 2 20 -8 45 -9 25 -22 45 -29 45 -7 0 -21 -19 -31 -42z
m34 -15 c-10 -10 -19 5 -10 18 6 11 8 11 12 0 2 -7 1 -15 -2 -18z"/>
<path d="M550 215 c0 -25 5 -45 10 -45 6 0 10 20 10 45 0 25 -4 45 -10 45 -5
0 -10 -20 -10 -45z"/>
<path d="M670 250 c0 -5 6 -10 14 -10 11 0 13 -9 9 -35 -4 -28 -2 -35 11 -35
12 0 16 9 16 35 0 19 5 35 10 35 6 0 10 5 10 10 0 6 -16 10 -35 10 -19 0 -35
-4 -35 -10z"/>
<path d="M760 215 c0 -45 0 -45 35 -45 19 0 35 5 35 10 0 6 -11 10 -25 10 -14
0 -25 5 -25 11 0 6 9 9 20 6 12 -3 20 0 20 8 0 8 -8 11 -20 8 -11 -3 -20 0
-20 6 0 6 11 11 25 11 14 0 25 5 25 10 0 6 -16 10 -35 10 -35 0 -35 0 -35 -45z"/>
<path d="M845 215 c0 -31 4 -45 14 -45 9 0 12 8 9 25 -3 14 -2 25 2 25 4 0 13
-11 20 -25 22 -41 40 -31 40 20 0 25 -4 45 -10 45 -5 0 -10 -12 -10 -27 l-1
-28 -20 28 c-30 40 -44 34 -44 -18z"/>
<path d="M962 248 c-16 -16 -15 -53 2 -67 17 -14 74 -11 66 3 -3 6 -16 10 -30
10 -18 1 -25 6 -25 21 0 15 7 20 30 20 17 1 30 5 30 10 0 15 -58 18 -73 3z"/>
<path d="M1050 215 c0 -25 4 -45 9 -45 5 0 11 20 13 45 2 31 -1 45 -9 45 -9 0
-13 -16 -13 -45z"/>
<path d="M1106 219 c-9 -23 -14 -44 -10 -48 4 -3 9 0 11 7 3 6 15 12 28 12 13
0 25 -6 28 -12 2 -7 7 -10 11 -7 10 10 -24 89 -39 89 -7 0 -20 -19 -29 -41z
m44 -10 c0 -5 -4 -9 -10 -9 -5 0 -10 7 -10 16 0 8 5 12 10 9 6 -3 10 -10 10
-16z"/>
<path d="M1240 214 c-22 -51 -21 -64 3 -39 17 17 47 20 47 5 0 -5 7 -10 15
-10 12 0 11 7 -4 42 -9 23 -23 44 -29 46 -7 2 -21 -18 -32 -44z m40 1 c0 -8
-4 -15 -10 -15 -5 0 -10 7 -10 15 0 8 5 15 10 15 6 0 10 -7 10 -15z"/>
<path d="M1330 215 c0 -43 1 -45 30 -45 17 0 30 5 30 10 0 6 -9 10 -20 10 -16
0 -20 7 -20 35 0 19 -4 35 -10 35 -5 0 -10 -20 -10 -45z"/>
<path d="M1452 248 c-7 -7 -12 -21 -12 -33 0 -12 5 -26 12 -33 16 -16 68 -15
68 1 0 7 -12 13 -27 12 -21 0 -28 5 -28 20 0 15 7 20 28 20 15 -1 27 5 27 12
0 16 -52 17 -68 1z"/>
<path d="M1539 239 c-17 -33 3 -69 39 -69 33 0 52 16 52 45 0 29 -19 45 -52
45 -18 0 -31 -7 -39 -21z m71 -24 c0 -7 -6 -18 -14 -24 -11 -9 -18 -8 -30 4
-9 9 -16 18 -16 20 0 2 7 11 16 20 12 12 19 13 30 4 8 -6 14 -17 14 -24z"/>
<path d="M1650 210 c0 -27 5 -50 10 -50 6 0 10 15 10 33 l1 32 20 -27 c32 -43
49 -36 49 17 0 33 -4 45 -15 45 -11 0 -13 -8 -9 -32 l6 -33 -27 33 c-14 17
-31 32 -36 32 -5 0 -9 -22 -9 -50z"/>
<path d="M1760 236 c0 -17 7 -26 26 -30 20 -5 24 -10 16 -18 -8 -8 -15 -8 -26
1 -10 8 -16 9 -21 1 -9 -15 36 -30 58 -18 25 13 21 37 -10 50 -27 11 -27 12
-5 15 33 6 27 23 -8 23 -25 0 -30 -4 -30 -24z"/>
<path d="M1840 226 c0 -41 32 -71 60 -56 22 12 33 90 13 90 -8 0 -13 -13 -13
-34 0 -19 -4 -37 -9 -40 -15 -10 -34 23 -29 49 4 17 1 25 -8 25 -9 0 -14 -12
-14 -34z"/>
<path d="M1945 217 c1 -23 5 -43 10 -44 6 -1 9 9 8 23 -2 31 3 30 20 -3 l14
-27 16 30 16 29 1 -32 c0 -18 5 -33 10 -33 6 0 10 23 10 50 0 57 -23 70 -41
23 l-11 -28 -10 28 c-5 15 -17 27 -26 27 -13 0 -17 -9 -17 -43z"/>
<path d="M2072 213 c4 -60 20 -58 22 2 1 31 -3 45 -12 45 -9 0 -12 -14 -10
-47z"/>
<path d="M2120 211 c0 -47 1 -48 28 -43 37 6 52 20 52 46 0 30 -18 46 -52 46
-27 0 -28 -2 -28 -49z m58 5 c4 -17 -12 -35 -30 -36 -5 0 -8 14 -8 31 0 24 4
30 17 27 10 -2 19 -12 21 -22z"/>
<path d="M2232 248 c-20 -20 -15 -66 9 -78 16 -9 26 -8 45 5 41 27 27 85 -21
85 -12 0 -26 -5 -33 -12z m56 -34 c2 -13 -4 -24 -13 -28 -24 -9 -35 1 -35 30
0 21 4 25 23 22 13 -2 23 -11 25 -24z"/>
<path d="M2330 210 c0 -27 5 -50 10 -50 6 0 10 9 10 20 0 26 8 25 30 -2 10
-13 22 -20 26 -15 4 4 3 12 -3 18 -9 9 -9 16 0 29 15 25 -7 50 -44 50 -28 0
-29 -2 -29 -50z m58 18 c-7 -19 -38 -22 -38 -4 0 10 9 16 21 16 12 0 19 -5 17
-12z"/>
</g>
</svg>
