<?xml version="1.0" standalone="no"?>
<!DOCTYPE svg PUBLIC "-//W3C//DTD SVG 20010904//EN"
 "http://www.w3.org/TR/2001/REC-SVG-20010904/DTD/svg10.dtd">
<svg version="1.0" xmlns="http://www.w3.org/2000/svg"
 width="450.000000pt" height="188.000000pt" viewBox="0 0 450.000000 188.000000"
 preserveAspectRatio="xMidYMid meet">
<metadata>
Created by potrace 1.10, written by Peter Selinger 2001-2011
</metadata>
<g transform="translate(0.000000,188.000000) scale(0.100000,-0.100000)"
fill="#ffffff" stroke="none">
<path d="M4202 1555 c-172 -66 -322 -163 -478 -309 l-82 -76 -7 38 c-19 105
-104 210 -208 258 -56 26 -72 29 -167 29 -94 -1 -111 -3 -162 -28 -77 -38
-144 -107 -182 -187 -27 -58 -30 -75 -30 -155 0 -124 26 -189 108 -271 43 -43
77 -67 116 -81 112 -42 225 -39 325 8 35 17 49 19 54 10 5 -8 34 23 81 90 208
292 378 460 632 627 117 77 117 92 0 47z m-67 -63 c-6 -5 -46 -35 -89 -68
-161 -119 -320 -289 -490 -523 -32 -44 -65 -81 -73 -81 -8 0 -22 8 -31 18 -10
10 -13 12 -8 5 28 -42 -72 -77 -202 -71 -107 4 -165 29 -239 104 -69 71 -93
136 -93 252 0 72 5 96 25 141 48 102 110 156 218 190 164 50 325 -7 417 -151
46 -70 58 -132 33 -162 l-18 -21 25 21 c14 12 30 20 36 17 6 -2 33 16 60 40
103 91 230 194 255 208 129 70 165 88 174 89 6 0 6 -3 0 -8z"/>
<path d="M3182 1337 c-42 -13 -107 -76 -127 -123 -19 -47 -19 -134 1 -182 45
-109 178 -168 278 -123 l45 19 26 -31 26 -32 -26 42 -27 41 -33 -14 c-19 -8
-57 -14 -85 -14 -213 0 -278 289 -87 385 28 14 65 25 81 25 128 0 227 -108
213 -231 -4 -29 -8 -54 -11 -56 -2 -3 -51 27 -108 65 -105 71 -179 112 -198
112 -6 0 22 -33 63 -72 40 -40 92 -99 115 -130 23 -31 46 -60 52 -63 19 -12
22 2 7 22 -60 73 -104 130 -111 141 -8 14 34 -11 127 -75 26 -18 47 -28 47
-23 0 6 6 10 14 8 7 -2 36 18 64 45 28 26 48 47 44 47 -3 0 -28 -21 -54 -47
-26 -26 -48 -42 -48 -36 0 7 6 18 13 24 16 16 6 122 -16 164 -22 42 -75 91
-119 109 -42 18 -117 19 -166 3z"/>
<path d="M1813 1493 c-11 -10 -91 -171 -178 -358 -116 -251 -154 -344 -147
-355 7 -11 28 -15 83 -15 l74 0 29 58 28 57 137 0 136 -1 27 -58 26 -59 62 -4
c73 -4 100 4 100 31 0 30 -299 683 -322 704 -11 9 -24 17 -28 17 -4 0 -17 -8
-27 -17z m50 -40 c8 -10 33 -58 55 -108 22 -49 60 -134 86 -188 25 -54 46
-100 46 -102 0 -2 15 -36 34 -77 66 -143 76 -167 76 -177 0 -13 -36 -21 -70
-17 -14 2 -30 4 -36 5 -6 0 -19 20 -30 44 -35 80 -24 77 -277 79 -46 1 -70
-19 -94 -78 -19 -47 -46 -60 -109 -52 -46 5 -50 -8 116 343 63 133 112 238
126 273 15 33 44 72 55 72 3 0 13 -8 22 -17z"/>
<path d="M1813 1173 c-24 -37 -52 -94 -54 -113 -3 -33 3 -39 57 -50 47 -10 59
-9 80 4 13 9 24 24 24 34 0 23 -63 145 -77 149 -6 2 -19 -9 -30 -24z m56 -59
c17 -36 31 -68 31 -70 0 -2 -29 -4 -64 -4 l-63 0 28 60 c16 33 29 64 29 70 0
21 9 8 39 -56z"/>
<path d="M2528 1498 c-31 -4 -80 -19 -108 -33 -282 -143 -282 -538 0 -681 77
-39 218 -46 301 -15 63 24 139 84 139 110 0 22 -81 101 -103 101 -10 0 -34
-11 -55 -25 -82 -54 -188 -40 -256 35 -77 85 -73 203 10 287 67 67 171 74 257
17 24 -16 45 -23 57 -19 22 7 90 86 90 104 0 18 -50 60 -103 87 -57 29 -150
42 -229 32z m192 -43 c71 -33 110 -63 110 -83 0 -10 -66 -72 -76 -72 -3 0 -18
9 -33 19 -40 29 -108 44 -167 36 -109 -13 -186 -108 -185 -227 0 -135 100
-238 224 -232 47 2 127 28 137 44 10 16 55 -2 79 -32 23 -28 23 -29 5 -50 -45
-50 -95 -70 -214 -85 -64 -8 -214 41 -227 74 -3 7 -9 13 -15 13 -23 0 -94 101
-109 155 -26 95 -19 181 23 272 37 79 139 160 232 184 47 12 176 3 216 -16z"/>
<path d="M542 1488 c-9 -9 -12 -102 -12 -359 0 -291 2 -348 15 -359 10 -8 60
-11 177 -8 155 3 166 4 220 31 265 130 287 487 40 646 -71 46 -147 61 -297 61
-89 0 -135 -4 -143 -12z m351 -34 c26 -9 47 -20 47 -25 0 -5 3 -8 8 -7 21 7
96 -60 133 -120 61 -97 56 -282 -10 -365 -38 -49 -89 -93 -126 -111 -22 -10
-49 -23 -59 -29 -29 -14 -305 -20 -321 -7 -18 15 -20 661 -2 672 24 15 281 9
330 -8z"/>
<path d="M690 1345 c-17 -21 -17 -410 0 -430 19 -22 126 -20 176 4 117 57 162
195 104 322 -11 24 -20 40 -20 35 0 -5 -9 3 -21 18 -34 44 -54 51 -166 60 -46
4 -64 2 -73 -9z m168 -34 c77 -40 112 -97 112 -182 0 -123 -70 -193 -205 -206
l-65 -6 0 207 0 206 60 0 c40 0 73 -7 98 -19z"/>
<path d="M1257 1488 c-16 -12 -17 -43 -15 -368 l3 -355 74 -3 c53 -2 77 1 82
10 5 7 9 169 9 360 0 333 -1 348 -19 358 -27 14 -114 13 -134 -2z m121 -30 c6
-8 10 -133 11 -340 1 -302 -1 -327 -17 -332 -22 -7 -90 -1 -100 8 -4 4 -8 150
-10 324 -2 249 0 317 10 324 11 6 11 8 0 8 -7 0 -10 5 -7 10 9 14 101 12 113
-2z"/>
<path d="M1530 659 c-9 -16 -7 -19 8 -19 11 0 25 6 31 14 9 11 7 15 -9 19 -13
3 -24 -1 -30 -14z"/>
<path d="M3150 655 c-10 -12 -10 -15 3 -15 23 0 47 11 47 21 0 15 -37 10 -50
-6z"/>
<path d="M530 625 c-1 0 -2 -35 -3 -78 l-2 -77 37 0 c55 0 84 15 96 50 12 33
4 68 -19 87 -10 8 -90 21 -109 18z m88 -48 c15 -12 16 -49 0 -65 -7 -7 -22
-12 -35 -12 -21 0 -23 5 -23 49 0 46 1 49 23 44 12 -3 28 -10 35 -16z"/>
<path d="M1105 618 c-31 -17 -45 -39 -45 -74 0 -59 77 -95 126 -60 15 12 17
17 7 27 -10 10 -16 10 -25 1 -33 -33 -91 16 -68 57 12 23 64 29 76 10 4 -8 9
-7 15 2 13 21 11 25 -16 37 -32 15 -44 15 -70 0z"/>
<path d="M1265 618 c-51 -27 -60 -84 -20 -123 27 -28 71 -33 101 -11 15 12 17
17 7 27 -10 10 -16 10 -25 1 -19 -19 -46 -14 -63 12 -13 20 -14 29 -5 46 9 18
19 21 52 18 48 -4 60 13 23 30 -32 15 -44 15 -70 0z"/>
<path d="M690 545 c0 -68 2 -75 20 -75 18 0 20 7 20 75 0 68 -2 75 -20 75 -18
0 -20 -7 -20 -75z"/>
<path d="M765 545 c0 -65 2 -75 18 -75 12 0 17 8 17 25 0 14 6 25 13 25 8 0
20 -11 27 -25 9 -16 22 -25 37 -25 l24 0 -19 28 c-17 23 -18 29 -6 40 17 16
18 54 2 70 -7 7 -35 12 -62 12 l-51 0 0 -75z m90 24 c0 -8 -12 -15 -27 -17
-24 -3 -28 0 -28 21 0 23 3 24 28 18 15 -4 27 -14 27 -22z"/>
<path d="M925 545 l0 -75 58 0 c44 0 57 3 57 15 0 11 -11 15 -40 15 -29 0 -40
4 -40 15 0 10 11 15 35 15 24 0 35 5 35 15 0 10 -11 15 -35 15 -24 0 -35 5
-35 15 0 11 11 15 40 15 29 0 40 4 40 15 0 12 -13 15 -57 15 l-58 0 0 -75z"/>
<path d="M1390 545 c0 -60 3 -75 15 -75 12 0 15 15 15 75 0 60 -3 75 -15 75
-12 0 -15 -15 -15 -75z"/>
<path d="M1471 594 c-28 -35 -26 -69 4 -99 51 -51 135 -18 135 53 0 45 -30 72
-79 72 -31 0 -44 -6 -60 -26z m89 -14 c23 -23 24 -33 10 -61 -12 -21 -50 -25
-68 -7 -18 18 -15 65 6 77 24 15 29 14 52 -9z"/>
<path d="M1640 545 c0 -67 2 -75 19 -75 16 0 18 6 13 45 -2 25 -1 45 4 45 5 0
23 -21 39 -45 17 -25 38 -45 48 -45 15 0 17 10 17 75 0 59 -3 75 -14 75 -11 0
-16 -14 -18 -47 l-3 -48 -34 48 c-20 26 -42 47 -53 47 -16 0 -18 -9 -18 -75z"/>
<path d="M1880 545 l0 -75 44 0 c60 0 90 25 90 75 0 50 -30 75 -90 75 l-44 0
0 -75z m88 33 c29 -29 7 -78 -35 -78 -21 0 -23 5 -23 45 0 40 2 45 23 45 13 0
28 -5 35 -12z"/>
<path d="M2045 545 l0 -75 58 0 c44 0 57 3 57 15 0 11 -11 15 -40 15 -29 0
-40 4 -40 15 0 10 11 15 35 15 24 0 35 5 35 15 0 10 -11 15 -35 15 -24 0 -35
5 -35 15 0 11 11 15 40 15 29 0 40 4 40 15 0 12 -13 15 -57 15 l-58 0 0 -75z"/>
<path d="M2261 550 c-17 -39 -31 -72 -31 -75 0 -3 9 -5 20 -5 11 0 20 7 20 15
0 11 11 15 35 15 22 0 38 -6 41 -15 4 -8 15 -15 26 -15 11 0 18 4 16 8 -70
170 -80 176 -127 72z m62 0 c4 -15 0 -20 -14 -20 -21 0 -22 1 -13 24 8 22 21
20 27 -4z"/>
<path d="M2380 605 c0 -9 9 -15 25 -15 24 0 25 -3 25 -60 0 -47 3 -60 15 -60
12 0 15 13 15 60 0 57 1 60 25 60 16 0 25 6 25 15 0 12 -14 15 -65 15 -51 0
-65 -3 -65 -15z"/>
<path d="M2530 545 l0 -75 60 0 c49 0 58 3 54 15 -4 10 -20 15 -45 15 -28 0
-39 4 -39 15 0 10 10 15 34 15 21 0 36 6 40 15 4 12 -3 15 -34 15 -29 0 -40 4
-40 15 0 11 11 15 40 15 29 0 40 4 40 15 0 12 -13 15 -55 15 l-55 0 0 -75z"/>
<path d="M2670 545 c0 -70 2 -75 21 -75 19 0 21 5 17 45 -2 25 -1 45 2 45 3
-1 20 -21 38 -45 50 -69 67 -61 69 30 2 68 1 75 -17 75 -15 0 -19 -8 -22 -46
l-3 -47 -33 47 c-20 27 -41 46 -53 46 -17 0 -19 -7 -19 -75z"/>
<path d="M2865 600 c-27 -30 -25 -88 4 -111 27 -22 79 -25 105 -6 16 12 16 15
3 26 -10 8 -17 9 -22 1 -8 -14 -48 -13 -63 2 -15 15 -15 51 0 66 15 15 55 16
63 2 5 -8 12 -7 22 1 13 11 13 14 -3 26 -28 20 -88 16 -109 -7z"/>
<path d="M3010 545 c0 -68 2 -75 20 -75 18 0 20 7 20 75 0 68 -2 75 -20 75
-18 0 -20 -7 -20 -75z"/>
<path d="M3100 600 c-12 -12 -20 -33 -20 -55 0 -45 29 -75 74 -75 49 0 80 29
80 75 0 27 -6 43 -23 56 -31 25 -86 24 -111 -1z m98 -49 c4 -28 -14 -51 -42
-51 -47 0 -63 57 -24 84 19 13 25 14 43 2 11 -7 21 -23 23 -35z"/>
<path d="M3262 545 c-2 -71 -1 -75 19 -75 19 0 21 5 17 45 -2 25 -1 45 2 45 3
-1 20 -21 38 -45 19 -27 41 -45 52 -45 18 0 20 7 20 75 0 69 -2 75 -21 75 -19
0 -21 -5 -17 -50 1 -28 2 -50 1 -50 -1 0 -18 23 -38 50 -54 73 -69 68 -73 -25z"/>
<path d="M3505 577 c14 -24 25 -58 25 -75 0 -25 4 -32 20 -32 16 0 20 7 20 32
0 17 11 51 25 75 25 42 25 43 5 43 -12 0 -25 -10 -32 -25 -6 -14 -14 -25 -18
-25 -4 0 -12 11 -18 25 -7 15 -20 25 -32 25 -20 0 -20 -1 5 -43z"/>
<path d="M561 333 c-13 -32 -25 -64 -28 -70 -3 -7 2 -13 11 -13 9 0 19 7 22
15 4 9 19 15 40 15 24 0 34 -5 34 -15 0 -8 9 -15 19 -15 18 0 17 4 -9 68 -38
89 -57 92 -89 15z m52 -3 c4 -15 0 -20 -14 -20 -17 0 -18 3 -9 20 6 11 12 20
14 20 2 0 6 -9 9 -20z"/>
<path d="M702 378 c-23 -23 -14 -48 23 -64 19 -8 35 -19 35 -24 0 -13 -37 -13
-45 0 -5 8 -12 7 -22 -1 -13 -11 -13 -14 3 -26 19 -14 62 -17 80 -5 34 22 18
67 -26 77 -17 4 -29 12 -27 18 4 12 17 13 47 6 8 -2 15 3 15 11 0 19 -65 26
-83 8z"/>
<path d="M820 320 c0 -56 3 -70 15 -70 12 0 15 14 15 70 0 56 -3 70 -15 70
-12 0 -15 -14 -15 -70z"/>
<path d="M890 375 c-19 -22 -2 -53 35 -65 19 -6 35 -16 35 -21 0 -13 -44 -11
-57 2 -7 7 -12 6 -16 -5 -12 -31 69 -50 93 -21 19 23 7 49 -33 68 -40 20 -41
43 0 33 29 -8 51 3 32 15 -22 14 -75 10 -89 -6z"/>
<path d="M1000 374 c0 -11 6 -15 20 -11 18 5 20 0 20 -54 0 -50 3 -59 18 -59
14 0 17 8 14 54 -3 50 -2 55 19 58 12 2 24 9 27 16 3 9 -13 12 -57 12 -50 0
-61 -3 -61 -16z"/>
<path d="M1138 320 l-3 -70 53 0 c39 0 52 4 52 15 0 10 -11 15 -35 15 -24 0
-35 5 -35 15 0 10 10 15 30 15 18 0 30 5 30 13 0 9 -10 12 -30 9 -23 -3 -30 0
-30 12 0 12 9 16 35 16 24 0 35 5 35 15 0 11 -12 15 -49 15 l-49 0 -4 -70z"/>
<path d="M1270 320 c0 -54 3 -70 14 -70 10 0 16 13 18 41 l3 41 30 -41 c17
-22 38 -41 48 -41 15 0 17 10 17 70 0 61 -2 70 -18 70 -15 0 -17 -6 -14 -34 7
-57 -2 -60 -36 -12 -48 67 -62 61 -62 -24z"/>
<path d="M1441 364 c-27 -35 -26 -59 4 -89 27 -28 76 -33 95 -10 16 19 3 40
-15 25 -8 -6 -24 -10 -37 -8 -19 2 -23 9 -23 38 0 34 1 35 40 36 59 2 62 3 41
19 -32 24 -81 19 -105 -11z"/>
<path d="M1580 320 c0 -56 3 -70 15 -70 12 0 15 14 15 70 0 56 -3 70 -15 70
-12 0 -15 -14 -15 -70z"/>
<path d="M1661 332 c-13 -31 -25 -63 -28 -69 -3 -7 2 -13 11 -13 9 0 19 7 22
15 4 9 19 15 40 15 24 0 34 -5 34 -15 0 -8 9 -15 19 -15 19 0 18 5 -11 70 -39
88 -55 90 -87 12z m47 -21 c-15 -5 -19 4 -11 24 6 18 7 18 13 -1 4 -10 3 -21
-2 -23z"/>
<path d="M1875 355 c-8 -19 -22 -51 -30 -70 -15 -33 -14 -35 5 -35 11 0 20 7
20 15 0 10 11 15 35 15 24 0 35 -5 35 -15 0 -8 9 -15 20 -15 11 0 20 2 20 4 0
20 -64 136 -75 136 -8 0 -22 -16 -30 -35z m45 -37 c0 -5 -7 -8 -15 -8 -17 0
-18 2 -9 25 5 13 8 14 15 3 5 -7 9 -16 9 -20z"/>
<path d="M2000 320 l0 -70 45 0 c33 0 45 4 45 15 0 10 -10 15 -30 15 -30 0
-30 1 -30 55 0 42 -3 55 -15 55 -12 0 -15 -14 -15 -70z"/>
<path d="M2182 374 c-31 -21 -31 -87 0 -108 26 -18 61 -20 89 -5 30 16 14 28
-30 22 -37 -5 -41 -3 -47 21 -9 38 12 59 53 53 38 -7 52 7 24 22 -28 15 -63
13 -89 -5z"/>
<path d="M2322 367 c-28 -30 -28 -68 1 -95 33 -31 80 -29 106 4 12 15 21 34
21 44 0 10 -9 29 -21 44 -27 34 -77 36 -107 3z m88 -27 c22 -40 -22 -80 -58
-54 -28 19 -28 49 -1 68 24 17 45 12 59 -14z"/>
<path d="M2470 320 c0 -65 2 -70 21 -70 20 0 21 4 16 45 -4 25 -5 45 -4 45 2
0 18 -20 36 -45 18 -25 40 -45 49 -45 14 0 17 11 17 70 0 62 -2 70 -19 70 -16
0 -18 -6 -14 -45 3 -25 4 -45 2 -45 -1 0 -17 20 -35 45 -18 25 -40 45 -51 45
-16 0 -18 -9 -18 -70z"/>
<path d="M2640 371 c-15 -28 -3 -48 36 -61 19 -6 34 -15 34 -20 0 -16 -19 -21
-40 -10 -26 14 -45 4 -29 -16 15 -18 73 -18 89 1 23 28 2 58 -54 78 -5 2 -6 9
-2 15 5 9 12 9 28 1 16 -8 22 -8 29 2 11 18 -8 29 -48 29 -22 0 -36 -6 -43
-19z"/>
<path d="M2763 334 c7 -67 19 -84 62 -84 43 0 58 20 63 86 4 50 3 54 -17 54
-19 0 -21 -6 -21 -54 0 -35 -5 -56 -12 -59 -28 -9 -38 6 -38 59 0 49 -2 54
-21 54 -20 0 -21 -4 -16 -56z"/>
<path d="M2920 320 c0 -58 3 -70 16 -70 13 0 15 8 12 40 -4 49 6 52 23 5 17
-46 33 -44 53 5 21 53 29 51 20 -5 -6 -40 -4 -45 14 -45 17 0 20 7 21 70 1 67
0 70 -22 70 -18 0 -28 -10 -42 -40 l-18 -40 -18 40 c-13 28 -24 40 -39 40 -18
0 -20 -6 -20 -70z"/>
<path d="M3110 320 c0 -56 3 -70 15 -70 12 0 15 14 15 70 0 56 -3 70 -15 70
-12 0 -15 -14 -15 -70z"/>
<path d="M3175 320 l0 -70 40 0 c56 0 85 22 85 66 0 48 -29 74 -82 74 l-43 0
0 -70z m85 26 c19 -24 8 -59 -22 -67 -27 -7 -28 -6 -28 37 0 36 3 44 19 44 10
0 24 -7 31 -14z"/>
<path d="M3341 364 c-12 -15 -21 -34 -21 -44 0 -10 9 -29 21 -44 41 -52 129
-23 129 42 0 66 -89 97 -129 46z m87 -16 c17 -17 15 -38 -5 -60 -22 -24 -39
-23 -58 6 -13 19 -14 29 -5 45 12 23 49 28 68 9z"/>
<path d="M3495 320 c0 -60 3 -70 18 -70 10 0 17 8 17 20 0 25 15 26 32 2 12
-18 58 -37 58 -24 0 3 -9 15 -20 27 -18 20 -19 23 -5 35 21 18 19 57 -4 70
-11 5 -37 10 -58 10 l-38 0 0 -70z m80 20 c0 -8 -10 -16 -22 -18 -18 -3 -23 2
-23 18 0 16 5 21 23 18 12 -2 22 -10 22 -18z"/>
</g>
</svg>
